<svg version="1" xmlns="http://www.w3.org/2000/svg" width="160" height="160" viewBox="0 0 120.000000 120.000000"><path d="M51.6 6.5c-2.7 1.3-5.2 2.7-5.5 3.2-.3.5-2.8 2-5.6 3.3-2.7 1.3-5.7 2.9-6.6 3.7-1.6 1.3-4.3 2.9-15.6 8.9-2.8 1.5-5.6 3.8-6.2 5.1-.7 1.5-1.1 12.4-1.1 30.4 0 30.1.3 32 5.3 33.3 1.2.3 3.1 1.4 4.2 2.4s4.6 3 7.7 4.5c3.1 1.5 5.8 3 6 3.4.1.5 2.6 1.9 5.3 3.3 2.8 1.3 5.2 2.7 5.5 3 2 2.3 11.6 6 15.5 6 3.9 0 13.5-3.7 15.5-6 .3-.3 2.8-1.7 5.5-3 2.8-1.4 5.2-2.8 5.3-3.3.2-.4 2.9-1.9 6-3.4s6.6-3.5 7.7-4.5c1.1-1 3-2.1 4.2-2.4 5-1.3 5.3-3.2 5.3-33.3 0-18-.4-28.9-1.1-30.4-.6-1.3-3.4-3.6-6.2-5.1-11.3-6-14-7.6-15.6-8.9-.9-.8-4-2.5-6.8-3.8-2.9-1.3-5.3-2.7-5.3-3.1C75 8.4 63.6 4 60.1 4.1c-2 0-5.8 1.1-8.5 2.4zM62 16.8c0 .5 1.7 1.4 3.8 2.1 2.1.7 4.9 2.1 6.2 3.2 2.5 1.9 2.5 1.9-8.2 1.9-6.6 0-10.8-.4-10.8-1s-.7-1-1.6-1c-2.6 0-.7-1.6 3.5-3 2.3-.7 4.1-1.7 4.1-2.2 0-.4.7-.8 1.5-.8s1.5.4 1.5.8zM40 30.9c0 3.3 2.1 13.3 2.9 14.1.4.3.6.9.7 1.5.1 2.3 4.5 10.3 6 10.9.8.3 1.3 1 1 1.5-.3.5.4 1.1 1.6 1.5 2.2.5 2.1.6-1.1 3-3.4 2.6-8.4 10-7.3 11 .3.3.1.6-.5.6-1.1 0-2.7 6-3.8 14.5-.6 4.1-.9 4.7-1.9 3.3-.6-.9-3.3-2.6-5.8-3.8-10.5-4.9-11.2-6.8-10.6-32.4.3-16.5.3-16.8 2.8-18.7 1.4-1 3.2-2.5 4-3.3.8-.7 3.2-2.1 5.3-3.1 2-.9 3.7-2.1 3.7-2.6s.7-.9 1.5-.9c1 0 1.5 1 1.5 2.9zm33 .1v3h-7.4C55.2 34 49 33 49 31.4c0-1.1 2.1-1.4 9.5-1.4 5.7 0 9.5-.4 9.5-1s1.1-1 2.5-1c2.1 0 2.5.5 2.5 3zm11-2.1c0 .5 1.7 1.7 3.8 2.6 2 1 4.4 2.4 5.2 3.1.8.8 2.6 2.3 4 3.3 2.5 1.9 2.5 2.2 2.8 18.7.6 25.6-.1 27.5-10.5 32.4-2.5 1.2-5.3 2.8-6.2 3.7-1.4 1.4-1.6.8-2.9-6.8-.8-4.6-1.8-8.5-2.2-8.7-.5-.2-.6-1-.3-1.8s.1-1.4-.4-1.4-1.5-2.1-2.2-4.6c-.8-2.6-2.3-5.4-3.3-6.3-3.9-3.2-4.1-4.9-.8-6.6 1.6-.8 3-2 3-2.6 0-.6.9-2.3 2-3.9 1.1-1.5 1.7-3 1.3-3.4-.3-.3-.1-.6.5-.6 1 0 2-3.9 3.7-14.3.3-2 1-3.7 1.5-3.7.6 0 1 .4 1 .9zM72 41.4c0 1.4-.5 2.8-1.1 3.1-.6.4-5 .4-9.9 0-7.4-.6-8.9-1-9.3-2.6-.4-1.7.3-1.9 8.2-2.2 4.7-.1 9.4-.4 10.4-.5 1.2-.1 1.7.5 1.7 2.2zm-2.5 9.4c-.6.4-1.8 1.9-2.8 3.4-1.4 2.3-2.1 2.6-4.1 1.8-1.4-.5-3.4-1.7-4.6-2.7l-2.1-1.8 2.8-.6c4-.9 12-1 10.8-.1zm-8.3 14.4c3.2 1.7 3.4 3.2.6 4-2.7.7-11.9.9-10 .1.6-.2 1.2-1 1.2-1.7 0-3.3 4-4.5 8.2-2.4zm7 12.2c2.1 3.1.8 3.6-9.2 3.6-10.4 0-11-.3-9.4-4.5.6-1.5 1.7-1.6 9.3-1 4.7.4 8.9 1.2 9.3 1.9zM60.6 87c10.7 0 11.4.1 11.4 2s-.7 2-12 2H48l.1-3.3c0-1.7.3-2.6.6-2 .3.9 3.7 1.3 11.9 1.3zM73 98c0 .9-10.7 7-12.4 7-1.8 0-13.6-6.5-13.6-7.5 0-.6 4.8-.9 13-.7 7.1.2 13 .7 13 1.2z"/></svg>